<?xml version="1.0" encoding="UTF-8"?>
<svg id="Layer_2" xmlns="http://www.w3.org/2000/svg" xmlns:xlink="http://www.w3.org/1999/xlink" viewBox="0 0 2187.76 2005.34">
  <defs>
    <style>
      .cls-1 {
        fill: url(#linear-gradient-15);
      }

      .cls-2 {
        fill: url(#linear-gradient-13);
      }

      .cls-3 {
        fill: url(#linear-gradient-2);
      }

      .cls-4 {
        fill: url(#linear-gradient-10);
      }

      .cls-5 {
        fill: url(#linear-gradient-12);
      }

      .cls-6 {
        fill: url(#linear-gradient-4);
      }

      .cls-7 {
        fill: url(#linear-gradient-3);
      }

      .cls-8 {
        fill: url(#linear-gradient-5);
      }

      .cls-9 {
        fill: url(#linear-gradient-22);
      }

      .cls-10 {
        fill: url(#linear-gradient-8);
      }

      .cls-11 {
        fill: url(#linear-gradient-14);
      }

      .cls-12 {
        fill: url(#linear-gradient-20);
      }

      .cls-13 {
        fill: url(#linear-gradient-17);
      }

      .cls-14 {
        fill: url(#linear-gradient-7);
      }

      .cls-15 {
        fill: url(#linear-gradient-9);
      }

      .cls-16 {
        fill: url(#linear-gradient-11);
      }

      .cls-17 {
        fill: url(#linear-gradient-19);
      }

      .cls-18 {
        fill: url(#linear-gradient-6);
      }

      .cls-19 {
        fill: url(#linear-gradient-21);
      }

      .cls-20 {
        fill: url(#linear-gradient-16);
      }

      .cls-21 {
        fill: url(#linear-gradient);
      }

      .cls-22 {
        fill: url(#linear-gradient-18);
      }
    </style>
    <linearGradient id="linear-gradient" x1="5452.67" y1="-969" x2="5781.93" y2="-969" gradientTransform="translate(-42397.74 -6879.55) scale(7.76 -9.09)" gradientUnits="userSpaceOnUse">
      <stop offset="0" stop-color="#81562a"/>
      <stop offset=".5" stop-color="#f8b26a"/>
      <stop offset="1" stop-color="#81562a"/>
    </linearGradient>
    <linearGradient id="linear-gradient-2" x1="5499.77" y1="-969.33" x2="5809.6" y2="-969.33" gradientTransform="translate(-45436.06 -6875.29) scale(8.24 -9.08)" xlink:href="#linear-gradient"/>
    <linearGradient id="linear-gradient-3" x1="5319.5" y1="-986.36" x2="5700.68" y2="-986.36" gradientTransform="translate(-35747.64 -6622.49) scale(6.7 -8.67)" xlink:href="#linear-gradient"/>
    <linearGradient id="linear-gradient-4" x1="5318.12" y1="-969.34" x2="5699.23" y2="-969.34" gradientTransform="translate(-35744.85 -6874.47) scale(6.7 -9.08)" xlink:href="#linear-gradient"/>
    <linearGradient id="linear-gradient-5" x1="5307.81" y1="-986.39" x2="5692.41" y2="-986.39" gradientTransform="translate(-35350.87 -6622.75) scale(6.64 -8.67)" xlink:href="#linear-gradient"/>
    <linearGradient id="linear-gradient-6" x1="5283.2" y1="-986.39" x2="5677.18" y2="-986.39" gradientTransform="translate(-34374.56 -6622.75) scale(6.49 -8.67)" xlink:href="#linear-gradient"/>
    <linearGradient id="linear-gradient-7" x1="5302.78" y1="-977.82" x2="5688.15" y2="-977.82" gradientTransform="translate(-35248.58 -6749.06) scale(6.63 -8.87)" xlink:href="#linear-gradient"/>
    <linearGradient id="linear-gradient-8" x1="5443.05" x2="5772.27" gradientTransform="translate(-42328.76 -6879.55) scale(7.76 -9.09)" xlink:href="#linear-gradient"/>
    <linearGradient id="linear-gradient-9" x1="5301.62" y1="-986.39" x2="5686.17" y2="-986.39" gradientTransform="translate(-35315.14 -6622.75) scale(6.64 -8.67)" xlink:href="#linear-gradient"/>
    <linearGradient id="linear-gradient-10" x1="-5851.93" y1="-986.36" x2="-1065.56" y2="-986.36" gradientTransform="translate(3016.31 -6622.49) scale(.53 -8.67)" xlink:href="#linear-gradient"/>
    <linearGradient id="linear-gradient-11" x1="5488.9" y1="-969.33" x2="5798.76" y2="-969.33" gradientTransform="translate(-45340.94 -6875.29) scale(8.24 -9.08)" xlink:href="#linear-gradient"/>
    <linearGradient id="linear-gradient-12" x1="5306.08" y1="-986.36" x2="5687.3" y2="-986.36" gradientTransform="translate(-35652.53 -6622.49) scale(6.7 -8.67)" xlink:href="#linear-gradient"/>
    <linearGradient id="linear-gradient-13" x1="5873.07" y1="-760.23" x2="6033.97" y2="-760.23" gradientTransform="translate(-93318.38 -13502.62) scale(15.87 -19.88)" xlink:href="#linear-gradient"/>
    <linearGradient id="linear-gradient-14" x1="5853.5" y1="-756.98" x2="6021.5" y2="-756.98" gradientTransform="translate(-89086.05 -13791.92) scale(15.2 -20.35)" xlink:href="#linear-gradient"/>
    <linearGradient id="linear-gradient-15" x1="5842.88" y1="-760.23" x2="6014.29" y2="-760.23" gradientTransform="translate(-87142.39 -13502.62) scale(14.9 -19.88)" xlink:href="#linear-gradient"/>
    <linearGradient id="linear-gradient-16" x1="992.83" y1="-760.22" x2="3078.47" y2="-760.22" gradientTransform="translate(-1321.61 -13503.17) scale(1.22 -19.88)" xlink:href="#linear-gradient"/>
    <linearGradient id="linear-gradient-17" x1="5866.59" y1="-760.23" x2="6027.5" y2="-760.23" gradientTransform="translate(-93215.78 -13502.62) scale(15.87 -19.88)" xlink:href="#linear-gradient"/>
    <linearGradient id="linear-gradient-18" x1="6006.46" y1="-708.52" x2="6113.4" y2="-708.52" gradientTransform="translate(-143561.04 -11329.84) scale(23.88 -16.19)" xlink:href="#linear-gradient"/>
    <linearGradient id="linear-gradient-19" x1="6079.43" y1="-655.6" x2="6157.78" y2="-655.6" gradientTransform="translate(-198212.29 -26167.08) scale(32.59 -40.46)" xlink:href="#linear-gradient"/>
    <linearGradient id="linear-gradient-20" x1="6103.45" y1="-669.29" x2="6171.86" y2="-669.29" gradientTransform="translate(-227920.36 -24954.6) scale(37.33 -38.52)" xlink:href="#linear-gradient"/>
    <linearGradient id="linear-gradient-21" x1="6069.1" y1="-641.67" x2="6150.72" y2="-641.67" gradientTransform="translate(-190053.01 -42304.21) scale(31.3 -66.85)" xlink:href="#linear-gradient"/>
    <linearGradient id="linear-gradient-22" x1="5805.81" y1="-672.97" x2="5990.64" y2="-672.97" gradientTransform="translate(-80319.46 -18013.22) scale(13.82 -27.12)" xlink:href="#linear-gradient"/>
  </defs>
  <g id="Layer_1-2" data-name="Layer_1">
    <g id="Group_160">
      <g id="Group_158">
        <g id="Group_156">
          <path id="Path_200" class="cls-21" d="M206.82,1894.47c-4.5-24.85-26.8-42.46-52.01-41.08-40.01,0-63.35,32.72-63.35,71.9s23.34,71.9,63.35,71.9c29.68-1.49,53.35-25.31,54.66-54.99h9.42c-1.47,34.57-29.4,62.13-63.99,63.14-45.84,0-72.77-35.26-72.77-80.03s26.96-80.05,72.77-80.05c30.15-2.03,56.83,19.36,61.41,49.23l-9.49-.02Z"/>
          <path id="Path_201" class="cls-3" d="M353.66,2005.32c-45.84,0-72.77-35.26-72.77-80.03s26.96-80.05,72.77-80.05,72.56,35.26,72.56,80.05-26.96,80.03-72.56,80.03ZM353.66,1997.19c39.81,0,63.14-32.72,63.14-71.9s-23.33-71.9-63.14-71.9-63.33,32.72-63.33,71.9,23.31,71.89,63.33,71.89v.02Z"/>
          <path id="Path_202" class="cls-7" d="M495.58,1848.89h11.78l96.52,140.17h.42v-140.17h9.42v152.8h-11.11l-97.17-141.25h-.42v141.25h-9.42l-.02-152.8Z"/>
          <path id="Path_203" class="cls-6" d="M789.7,1892.53c-1.06-26.1-20.75-39.14-49-39.14-17.33,0-41.95,7.26-41.95,32.53s26.1,28.67,52,34.01c25.9,5.34,52.21,11.97,52.21,42.32s-30.4,43.02-53.71,43.02c-35.76,0-64.85-14.78-64.44-54.15h9.43c-1.94,33.4,24.81,46.02,54.99,46.02,18.39,0,44.29-8.34,44.29-34.89s-26.11-30.4-52.21-35.72c-26.1-5.32-52.03-11.58-52.03-40.66s27.19-40.66,51.38-40.66c31.88,0,56.93,13.68,58.43,47.29l-9.4.04Z"/>
          <path id="Path_204" class="cls-8" d="M857.57,1857.02v-8.13h117.08v8.13h-53.94v144.67h-9.42v-144.67h-53.72Z"/>
          <path id="Path_205" class="cls-18" d="M1034.38,1848.89h63.85c26.75,0,48.36,9.84,48.36,39.37.95,19.59-13.29,36.63-32.74,39.16v.44c17.13.67,30.46,15.1,29.79,32.23,0,.17-.01.34-.02.51,1.5,15.87-1.08,32.97,5.13,41.08h-10.58c-3.57-13.97-4.94-28.4-4.06-42.79-1.92-14.79-9.2-26.77-35.95-26.77h-54.36v69.56h-9.42v-152.8ZM1098.15,1924c22.25,0,38.95-10.58,38.95-35.11,0-23.12-18.41-31.9-38.95-31.9h-54.36v67h54.36Z"/>
          <path id="Path_206" class="cls-14" d="M1227.89,1848.89v91.6c0,18.41,3.84,56.7,47.96,56.7,37.45,0,50.06-22.04,50.06-56.7v-91.6h9.42v91.6c0,36.39-13.66,64.85-59.47,64.85-54.36,0-57.37-44.5-57.37-64.85v-91.6h9.42Z"/>
          <path id="Path_207" class="cls-10" d="M1530.56,1894.47c-4.5-24.84-26.79-42.45-52-41.08-40.02,0-63.35,32.72-63.35,71.9s23.34,71.9,63.35,71.9c29.64-1.53,53.27-25.34,54.57-54.99h9.42c-1.47,34.57-29.4,62.13-63.99,63.14-45.84,0-72.78-35.26-72.78-80.03s26.98-80.05,72.78-80.05c30.15-2.03,56.83,19.36,61.41,49.23l-9.42-.02Z"/>
          <path id="Path_208" class="cls-15" d="M1594.99,1857.02v-8.13h117.09v8.13h-53.94v144.67h-9.42v-144.67h-53.74Z"/>
          <path id="Path_209" class="cls-4" d="M1771.8,1848.89h9.42v152.8h-9.42v-152.8Z"/>
          <path id="Path_210" class="cls-16" d="M1923.36,2005.32c-45.84,0-72.77-35.26-72.77-80.03s26.96-80.05,72.77-80.05,72.54,35.26,72.54,80.05-26.96,80.03-72.54,80.03ZM1923.36,1997.19c39.8,0,63.14-32.72,63.14-71.9s-23.34-71.9-63.14-71.9-63.35,32.72-63.35,71.9,23.29,71.89,63.35,71.89v.02Z"/>
          <path id="Path_211" class="cls-5" d="M2065.32,1848.89h11.78l96.48,140.17h.44v-140.17h9.42v152.8h-11.11l-97.15-141.25h-.44v141.25h-9.42v-152.8Z"/>
        </g>
        <g id="Group_157">
          <path id="Path_212" class="cls-2" d="M99.04,1434.8h21.6v201.69l220.4-201.76h27.98l-160.03,145.8,169.85,204.71h-26.99l-158.58-189.97-72.66,66.26v123.71h-21.6l.03-350.44Z"/>
          <path id="Path_213" class="cls-11" d="M617.89,1434.8v210.12c0,42.19,8.82,130.09,109.97,130.09,85.9,0,114.87-50.55,114.87-130.09v-210.12h21.58v210.12c0,83.45-31.42,148.73-136.45,148.73-124.69,0-131.57-102.11-131.57-148.73v-210.12h21.6Z"/>
          <path id="Path_214" class="cls-1" d="M1122.54,1434.8h140.4c83.43,0,110.45,45.65,110.45,90.82-.03,38.78-29.62,71.13-68.24,74.62l.97.97c44.64,3.8,78.97,41.1,79.06,85.9,0,63.83-49.11,98.19-122.24,98.19h-140.4v-350.51ZM1144.14,1593.86h118.8c58.41,0,88.87-29.46,88.87-72.15,0-50.57-42.32-68.25-88.87-68.25h-118.8v140.4ZM1144.14,1766.65h118.8c61.87,0,100.64-27.47,100.64-79.54,0-59.95-54.48-74.6-100.64-74.6h-118.8v154.14Z"/>
          <path id="Path_215" class="cls-20" d="M1628.17,1434.8h21.58v350.52h-21.58v-350.52Z"/>
          <path id="Path_216" class="cls-13" d="M1907.95,1434.8h21.6v201.69l220.4-201.76h27.98l-160.05,145.8,169.87,204.71h-26.99l-158.58-189.97-72.66,66.26v123.71h-21.6l.03-350.44Z"/>
        </g>
      </g>
      <g id="Group_159">
        <path id="Path_217" class="cls-22" d="M799.98,159.55c-16.42,39.97-93.31,127.83-91.69,126.24,26.84-25.78,130.79-112.1,182.51-150.44,41.09-31.14,84.27-59.42,129.24-84.63,32.08-18.44,66.47-32.52,102.27-41.88,2.98-.72,6.68-.65,7.05-5.03.26-2.84-2.8-3.95-8.82-3.05-35.65,5.29-71.43,9.1-107.45,10.98-48.28,2.52-96.66,2.61-144.95.25-42.83-2.1-85.57-5.29-128.01-11.44-1.32-.34-2.71-.34-4.04,0-1.16.52-2.04,1.52-2.38,2.75-.16,1.31.32,2.62,1.29,3.53,1.57.88,3.28,1.47,5.06,1.76,10.25,2.24,20.18,5.75,29.57,10.44,30.97,15.06,48.97,48.12,44.82,82.31-1.91,20.01-6.78,39.63-14.47,58.2Z"/>
        <path id="Path_218" class="cls-17" d="M396.77,131.96c0-6.84-.18-13.7.28-20.52.6-9.54,1.27-19.13,2.72-28.56,2.27-20.47,15.56-38.06,34.63-45.84,8.78-3.8,17.8-6.99,27.01-9.56,23.41-6.01,47.15-10.61,71.11-13.77,12.61-1.94,25.27-3.69,37.86-5.68,3.93-.62,5.45-2.89,3-7.49-3.19,0-6.77-.25-10.31,0-23.63,1.85-47.27,3.72-70.9,5.77-43.62,3.79-87.33,6.07-131.13,6.86-40.13.65-80.26.44-120.41.44-48.36,0-96.62-2.86-144.88-6.08C68.45,5.75,41.22,2.91,13.96.72,9.29-.61,4.29-.08,0,2.2c.97,1.76,1.52,4.25,3,5.17,2.11.84,4.36,1.29,6.63,1.32,26.98,4.41,54.02,8.55,80.95,13.29,16.21,2.7,32.06,7.22,47.25,13.47,20.58,7.73,35.18,26.23,37.91,48.05,2.14,15.82,3.01,31.79,2.63,47.75.11,110.38.11,220.76,0,331.15v155.99c75.15,2.8,145.8,36.56,195.2,93.26,6.35,7.16,15.48-10.3,23.24-15.45.09-.02-.05-431.51-.04-564.24Z"/>
        <path id="Path_219" class="cls-12" d="M1189.61,1157.78c-26.23-6.82-49.8-21.39-67.64-41.81-12.41-13.39-23.53-27.92-33.2-43.41-17.63-28.25-33.01-57.84-46-88.49-54.71-125.35-109.42-250.7-164.14-376.04-1.76-4.13-3.83-8.13-5.78-12.34-3.26-.51-5.91-1.06-8.59-1.3-32.23-3-64.52-5.45-96.68-9.03-35.83-3.8-71.32-10.28-106.18-19.4-25.26-6.24-49.63-15.64-72.54-27.98-21.97-11.49-40.17-29.06-52.42-50.62-4.8-8.82,70.19,126.24,112.19,199.4,34.03,59.3,65.94,119.9,98.44,179.97,30.76,57.52,64.51,113.39,101.1,167.38,9.37,14.06,20.51,26.85,33.15,38.07,15.26,13.06,32.05,24.23,49.99,33.27,25.28,12.68,51.75,22.84,79.03,30.33,40.01,11.01,80.77,19.08,121.96,24.16,16.26,2.19,32.6,3.81,48.93,5.45,4.34,1.23,8.96.94,13.12-.81-.93-5.87-.92-5.87-4.74-6.79Z"/>
        <path id="Path_220" class="cls-19" d="M1530.33,202.91c-13.96,39.6-24.32,80.38-30.94,121.84-10.86,66.11-16.83,132.94-17.86,199.93-.56,27.82-1.25,55.65-1.09,83.47.32,55.66,2.47,111.29,8.11,166.69,5.18,59.71,16.33,118.74,33.27,176.23,8.69,28.92,20.21,56.91,34.42,83.56,14.95,28.45,34.62,54.14,58.19,75.99,35.26,31.88,79.44,52.19,126.6,58.19,13.51,1.9,27.21,2.26,40.84,3.39,2.32.17,4.63.52,6.89,1.06.6.16,1.23,1.48,1.22,2.27-.02.79-.67,2.1-1.3,2.26-2.21.71-4.52,1.09-6.84,1.13-17.44-.6-34.91-.81-52.31-2.19-42.82-3.13-85.22-10.55-126.56-22.15-63.43-17.39-122.66-47.49-174.1-88.48-59.5-48.56-106.17-110.97-135.92-181.77-20.35-47.77-34.82-97.83-43.07-149.1-10.22-62.43-13.76-125.77-10.58-188.94,2.43-71.76,15.51-142.76,38.79-210.68,20.07-58.61,50.63-113.08,90.21-160.75,57.05-67.41,131.99-117.32,216.19-143.98,46.98-13.62,94.88-23.85,143.33-30.61,2.49-.37-130.12,35.74-197.44,202.64Z"/>
        <path id="Path_221" class="cls-9" d="M1911.48.21c149.87,73.75,238.68-2.03,243.59,0-.56,3.9-33.11,104.13-3.86,478.18C2105.91,68.2,1909.51,5.73,1911.48.21Z"/>
      </g>
    </g>
  </g>
</svg>