<svg width="116" height="64" viewBox="0 0 116 64" fill="none" xmlns="http://www.w3.org/2000/svg">
<path d="M43.0601 8.57829C42.1763 10.7273 38.0376 15.4512 38.1248 15.3657C39.5695 13.9796 45.1647 9.33854 47.9487 7.27716C50.1604 5.60289 52.4846 4.08239 54.9052 2.72695C56.632 1.73551 58.4831 0.978486 60.41 0.475237C60.5705 0.436526 60.7696 0.44029 60.7895 0.204795C60.8035 0.0521001 60.6388 -0.00758005 60.3148 0.0408092C58.3959 0.325231 56.4699 0.530079 54.5311 0.631158C51.9324 0.766648 49.3282 0.771487 46.7289 0.6446C44.4236 0.531692 42.123 0.360178 39.8386 0.0295184C39.7676 0.011238 39.6927 0.011238 39.6212 0.0295184C39.5587 0.0574767 39.5113 0.111243 39.493 0.177375C39.4844 0.247808 39.5103 0.318241 39.5625 0.367168C39.647 0.414482 39.739 0.446204 39.8348 0.461796C40.3866 0.582232 40.9211 0.77095 41.4265 1.02311C43.0935 1.83283 44.0624 3.61033 43.839 5.44858C43.7362 6.52444 43.4741 7.57932 43.0601 8.57775V8.57829Z" fill="black"/>
<path d="M21.3568 7.09492C21.3568 6.72716 21.3471 6.35832 21.3718 5.99164C21.4041 5.47872 21.4402 4.9631 21.5182 4.45609C21.6404 3.3555 22.3558 2.40976 23.3823 1.99146C23.8549 1.78715 24.3404 1.61564 24.8361 1.47746C26.0962 1.15433 27.374 0.907004 28.6637 0.737104C29.3425 0.632798 30.0239 0.538708 30.7016 0.431714C30.9131 0.398379 30.9949 0.27633 30.8631 0.0290072C30.6914 0.0290072 30.4987 0.0155657 30.3081 0.0290072C29.0362 0.128474 27.7637 0.229016 26.4918 0.339236C24.1439 0.543009 21.7911 0.665595 19.4335 0.70807C17.2735 0.743018 15.1134 0.731727 12.9523 0.731727C10.3492 0.731727 7.75156 0.577957 5.15389 0.404831C3.68443 0.309127 2.21873 0.156432 0.751419 0.0386851C0.500049 -0.0328235 0.230916 -0.00432762 0 0.118259C0.0522118 0.212886 0.0818164 0.346763 0.16148 0.396228C0.275054 0.441391 0.396163 0.465586 0.51835 0.467199C1.97059 0.704306 3.42606 0.926897 4.87561 1.18175C5.74814 1.32692 6.60129 1.56994 7.41891 1.90597C8.52666 2.32158 9.31253 3.31625 9.45948 4.48942C9.57467 5.34 9.6215 6.19864 9.60104 7.05674C9.60696 12.9914 9.60696 18.9261 9.60104 24.8613V33.2482C13.6461 33.3988 17.449 35.2139 20.108 38.2625C20.4498 38.6474 20.9412 37.7087 21.3589 37.4318C21.3638 37.4307 21.3562 14.2313 21.3568 7.09492Z" fill="black"/>
<path d="M64.0326 62.249C62.6208 61.8823 61.3521 61.0989 60.3918 60.001C59.7238 59.2811 59.1253 58.4999 58.6048 57.6671C57.6558 56.1482 56.8279 54.5573 56.1287 52.9093C53.1839 46.1698 50.239 39.4302 47.2936 32.6912C47.1989 32.4692 47.0875 32.2541 46.9825 32.0277C46.8071 32.0003 46.6644 31.9708 46.5202 31.9578C44.7853 31.7965 43.0473 31.6648 41.3162 31.4723C39.3876 31.268 37.4773 30.9196 35.6009 30.4293C34.2413 30.0938 32.9295 29.5884 31.6963 28.9249C30.5138 28.3071 29.5341 27.3625 28.8747 26.2033C28.6164 25.7291 32.6528 32.9907 34.9135 36.9242C36.7453 40.1125 38.4629 43.3707 40.2122 46.6004C41.8679 49.6931 43.6846 52.697 45.6541 55.5998C46.1584 56.3557 46.7581 57.0434 47.4384 57.6466C48.2598 58.3488 49.1636 58.9494 50.1292 59.4354C51.49 60.1172 52.9148 60.6634 54.3831 61.0661C56.5367 61.6581 58.7307 62.092 60.9478 62.3651C61.8231 62.4829 62.7026 62.57 63.5816 62.6582C63.8152 62.7243 64.0638 62.7087 64.2878 62.6146C64.2377 62.299 64.2382 62.299 64.0326 62.2495V62.249Z" fill="black"/>
<path d="M82.3724 10.9095C81.621 13.0386 81.0633 15.2312 80.707 17.4603C80.1225 21.0148 79.8011 24.608 79.7457 28.2097C79.7155 29.7055 79.6784 31.2018 79.687 32.6976C79.7042 35.6902 79.8199 38.6812 80.1235 41.6598C80.4024 44.8702 81.0025 48.044 81.9143 51.135C82.3821 52.6899 83.0022 54.1948 83.767 55.6276C84.5718 57.1573 85.6305 58.5385 86.8992 59.7133C88.7971 61.4274 91.1752 62.5193 93.7137 62.8419C94.4409 62.9441 95.1783 62.9634 95.9119 63.0242C96.0368 63.0333 96.1611 63.0522 96.2828 63.0812C96.3151 63.0898 96.349 63.1608 96.3485 63.2032C96.3474 63.2457 96.3124 63.3161 96.2785 63.3248C96.1595 63.3629 96.0352 63.3834 95.9103 63.3855C94.9716 63.3532 94.0312 63.342 93.0947 63.2678C90.7898 63.0995 88.5076 62.7005 86.2824 62.0768C82.8681 61.1419 79.68 59.5235 76.9112 57.3196C73.7085 54.7088 71.1964 51.3532 69.5951 47.5466C68.4997 44.9782 67.7208 42.2867 67.2767 39.5301C66.7266 36.1735 66.5361 32.768 66.7073 29.3716C66.8381 25.5134 67.5421 21.696 68.7952 18.0442C69.8755 14.893 71.5204 11.9644 73.6509 9.40135C76.7217 5.777 80.7555 3.09354 85.2876 1.66014C87.8164 0.927854 90.3947 0.377829 93.0026 0.0143719C93.1366 -0.00552151 85.9987 1.93596 82.3751 10.9095H82.3724Z" fill="black"/>
<path d="M102.888 0.0114409C110.955 3.97667 115.736 -0.0977038 116 0.0114409C115.97 0.221128 114.218 5.61008 115.792 25.7212C113.354 3.66698 102.782 0.308228 102.888 0.0114409Z" fill="black"/>
</svg>
