<svg width="65" height="63" viewBox="0 0 65 63" fill="none" xmlns="http://www.w3.org/2000/svg">
<g clip-path="url(#clip0_220_15)">
<path d="M43.0602 8.57835C42.1764 10.7274 38.0376 15.4512 38.1248 15.3658C39.5695 13.9797 45.1648 9.3386 47.9487 7.27722C50.1605 5.60295 52.4847 4.08245 54.9053 2.72701C56.632 1.73557 58.4831 0.978547 60.4101 0.475298C60.5705 0.436587 60.7697 0.440351 60.7896 0.204856C60.8036 0.0521611 60.6389 -0.00751901 60.3148 0.0408703C58.3959 0.325292 56.47 0.53014 54.5312 0.631219C51.9324 0.766709 49.3283 0.771548 46.729 0.644661C44.4236 0.531753 42.1231 0.36024 39.8387 0.0295794C39.7676 0.011299 39.6928 0.011299 39.6212 0.0295794C39.5588 0.0575377 39.5114 0.111304 39.4931 0.177436C39.4845 0.247869 39.5103 0.318302 39.5625 0.367229C39.647 0.414543 39.7391 0.446265 39.8349 0.461857C40.3866 0.582293 40.9211 0.771011 41.4266 1.02317C43.0936 1.83289 44.0624 3.61039 43.8391 5.44864C43.7363 6.5245 43.4741 7.57938 43.0602 8.57781V8.57835Z" fill="white"/>
<path d="M21.3568 7.09486C21.3568 6.7271 21.3471 6.35826 21.3718 5.99158C21.4041 5.47865 21.4402 4.96304 21.5182 4.45603C21.6404 3.35544 22.3558 2.4097 23.3823 1.9914C23.8549 1.78709 24.3404 1.61558 24.8361 1.4774C26.0962 1.15427 27.374 0.906943 28.6637 0.737043C29.3425 0.632737 30.0239 0.538647 30.7016 0.431652C30.9131 0.398318 30.9949 0.276269 30.8631 0.0289462C30.6914 0.0289462 30.4987 0.0155047 30.3081 0.0289462C29.0362 0.128413 27.7637 0.228955 26.4918 0.339175C24.1439 0.542948 21.7911 0.665534 19.4335 0.708009C17.2735 0.742957 15.1134 0.731666 12.9523 0.731666C10.3492 0.731666 7.75156 0.577896 5.15389 0.40477C3.68443 0.309066 2.21873 0.156371 0.751419 0.038624C0.500049 -0.0328846 0.230916 -0.00438865 0 0.118198C0.0522118 0.212825 0.0818164 0.346702 0.16148 0.396167C0.275054 0.44133 0.396163 0.465525 0.51835 0.467138C1.97059 0.704245 3.42606 0.926836 4.87561 1.18169C5.74814 1.32685 6.60129 1.56988 7.41891 1.90591C8.52666 2.32152 9.31253 3.31619 9.45948 4.48936C9.57467 5.33994 9.6215 6.19858 9.60104 7.05668C9.60696 12.9914 9.60696 18.926 9.60104 24.8612V33.2482C13.6461 33.3987 17.449 35.2139 20.108 38.2624C20.4498 38.6474 20.9412 37.7086 21.3589 37.4317C21.3638 37.4306 21.3562 14.2312 21.3568 7.09486Z" fill="white"/>
<path d="M64.0326 62.249C62.6208 61.8823 61.3521 61.0989 60.3918 60.001C59.7238 59.2811 59.1253 58.4999 58.6048 57.6671C57.6558 56.1482 56.8279 54.5573 56.1287 52.9093C53.1839 46.1698 50.239 39.4302 47.2936 32.6912C47.1989 32.4692 47.0875 32.2541 46.9825 32.0277C46.8071 32.0003 46.6644 31.9708 46.5202 31.9578C44.7853 31.7965 43.0473 31.6648 41.3162 31.4723C39.3876 31.268 37.4773 30.9196 35.6009 30.4293C34.2413 30.0938 32.9295 29.5884 31.6963 28.9249C30.5138 28.3071 29.5341 27.3625 28.8747 26.2033C28.6164 25.7291 32.6528 32.9907 34.9135 36.9242C36.7453 40.1125 38.4629 43.3707 40.2122 46.6004C41.8679 49.6931 43.6846 52.697 45.6541 55.5998C46.1584 56.3557 46.7581 57.0434 47.4384 57.6466C48.2598 58.3488 49.1636 58.9494 50.1292 59.4354C51.49 60.1172 52.9148 60.6634 54.3831 61.0661C56.5367 61.6581 58.7307 62.092 60.9478 62.3651C61.8231 62.4829 62.7026 62.57 63.5816 62.6582C63.8152 62.7243 64.0638 62.7087 64.2878 62.6146C64.2377 62.299 64.2382 62.299 64.0326 62.2495V62.249Z" fill="white"/>
</g>
<defs>
<clipPath id="clip0_220_15">
<rect width="65" height="63" fill="white"/>
</clipPath>
</defs>
</svg>
