<svg width="52" height="63" viewBox="0 0 52 63" fill="none" xmlns="http://www.w3.org/2000/svg">
<g clip-path="url(#clip0_220_3)">
<path d="M0.0326277 62.249C-1.37924 61.8823 -2.64794 61.0989 -3.6082 60.001C-4.27619 59.2811 -4.87474 58.4999 -5.39524 57.6671C-6.3442 56.1482 -7.17205 54.5573 -7.87126 52.9093C-10.8161 46.1698 -13.761 39.4302 -16.7064 32.6912C-16.8011 32.4692 -16.9125 32.2541 -17.0175 32.0277C-17.1929 32.0003 -17.3356 31.9708 -17.4798 31.9578C-19.2147 31.7965 -20.9527 31.6648 -22.6838 31.4723C-24.6124 31.268 -26.5227 30.9196 -28.3991 30.4293C-29.7587 30.0938 -31.0705 29.5884 -32.3037 28.9249C-33.4862 28.3071 -34.4659 27.3625 -35.1253 26.2033C-35.3836 25.7291 -31.3472 32.9907 -29.0865 36.9242C-27.2547 40.1125 -25.5371 43.3707 -23.7878 46.6004C-22.1321 49.6931 -20.3154 52.697 -18.3459 55.5998C-17.8416 56.3557 -17.2419 57.0434 -16.5616 57.6466C-15.7402 58.3488 -14.8364 58.9494 -13.8708 59.4354C-12.51 60.1172 -11.0852 60.6634 -9.61686 61.0661C-7.46326 61.6581 -5.26928 62.092 -3.05217 62.3651C-2.17695 62.4829 -1.29743 62.57 -0.418439 62.6582C-0.184832 62.7243 0.0638466 62.7087 0.287765 62.6146C0.237706 62.299 0.238245 62.299 0.0326277 62.2495V62.249Z" fill="white"/>
<path d="M18.3724 10.9094C17.621 13.0386 17.0633 15.2311 16.707 17.4603C16.1225 21.0147 15.8011 24.6079 15.7457 28.2097C15.7155 29.7054 15.6784 31.2017 15.687 32.6975C15.7042 35.6901 15.8199 38.6811 16.1235 41.6597C16.4024 44.8701 17.0025 48.0439 17.9143 51.1349C18.3821 52.6898 19.0022 54.1947 19.767 55.6276C20.5718 57.1572 21.6305 58.5385 22.8992 59.7132C24.7971 61.4273 27.1752 62.5193 29.7137 62.8419C30.4409 62.944 31.1783 62.9634 31.9119 63.0241C32.0368 63.0333 32.1611 63.0521 32.2828 63.0811C32.3151 63.0897 32.349 63.1607 32.3485 63.2032C32.3474 63.2457 32.3124 63.3161 32.2785 63.3247C32.1595 63.3629 32.0352 63.3833 31.9103 63.3854C30.9716 63.3532 30.0312 63.3419 29.0947 63.2677C26.7898 63.0994 24.5076 62.7005 22.2824 62.0768C18.8681 61.1418 15.68 59.5234 12.9112 57.3196C9.70848 54.7087 7.19639 51.3532 5.59505 47.5466C4.49968 44.9782 3.72081 42.2866 3.27675 39.5301C2.72664 36.1735 2.53609 32.7679 2.70726 29.3715C2.83806 25.5133 3.54211 21.6959 4.79519 18.0442C5.87549 14.8929 7.52043 11.9643 9.65089 9.40129C12.7217 5.77694 16.7555 3.09348 21.2876 1.66008C23.8164 0.927793 26.3947 0.377768 29.0026 0.0143108C29.1366 -0.00558254 21.9987 1.9359 18.3751 10.9094H18.3724Z" fill="white"/>
<path d="M38.8884 0.0114409C46.9554 3.97667 51.7357 -0.0977038 52 0.0114409C51.9698 0.221128 50.2178 5.61008 51.7922 25.7212C49.3539 3.66698 38.7823 0.308228 38.8884 0.0114409Z" fill="white"/>
</g>
<defs>
<clipPath id="clip0_220_3">
<rect width="52" height="63" fill="white"/>
</clipPath>
</defs>
</svg>
