<svg width="89" height="49" viewBox="0 0 89 49" fill="none" xmlns="http://www.w3.org/2000/svg">
<path d="M33.0375 6.58145C32.3594 8.23027 29.184 11.8546 29.2509 11.789C30.3594 10.7256 34.6523 7.16475 36.7882 5.58317C38.4852 4.2986 40.2684 3.13201 42.1256 2.09206C43.4504 1.33139 44.8707 0.750569 46.3491 0.364456C46.4722 0.334755 46.625 0.337643 46.6403 0.156962C46.651 0.0398076 46.5246 -0.00598147 46.276 0.0311448C44.8038 0.249365 43.3261 0.406533 41.8386 0.484085C39.8447 0.588039 37.8467 0.591751 35.8524 0.494398C34.0836 0.40777 32.3185 0.276178 30.5659 0.022482C30.5113 0.00845652 30.4539 0.00845652 30.399 0.022482C30.3511 0.0439327 30.3148 0.0851841 30.3007 0.135923C30.2941 0.189963 30.3139 0.244002 30.354 0.281541C30.4188 0.317842 30.4895 0.34218 30.563 0.354143C30.9863 0.446546 31.3964 0.591339 31.7842 0.784808C33.0632 1.40605 33.8065 2.76983 33.6351 4.18021C33.5562 5.00565 33.3551 5.815 33.0375 6.58104V6.58145Z" fill="url(#paint0_linear_163_2)"/>
<path d="M33.0375 6.58145C32.3594 8.23027 29.184 11.8546 29.2509 11.789C30.3594 10.7256 34.6523 7.16475 36.7882 5.58317C38.4852 4.2986 40.2684 3.13201 42.1256 2.09206C43.4504 1.33139 44.8707 0.750569 46.3491 0.364456C46.4722 0.334755 46.625 0.337643 46.6403 0.156962C46.651 0.0398076 46.5246 -0.00598147 46.276 0.0311448C44.8038 0.249365 43.3261 0.406533 41.8386 0.484085C39.8447 0.588039 37.8467 0.591751 35.8524 0.494398C34.0836 0.40777 32.3185 0.276178 30.5659 0.022482C30.5113 0.00845652 30.4539 0.00845652 30.399 0.022482C30.3511 0.0439327 30.3148 0.0851841 30.3007 0.135923C30.2941 0.189963 30.3139 0.244002 30.354 0.281541C30.4188 0.317842 30.4895 0.34218 30.563 0.354143C30.9863 0.446546 31.3964 0.591339 31.7842 0.784808C33.0632 1.40605 33.8065 2.76983 33.6351 4.18021C33.5562 5.00565 33.3551 5.815 33.0375 6.58104V6.58145Z" fill="white"/>
<path d="M16.3858 5.44347C16.3858 5.16131 16.3784 4.87832 16.3974 4.59699C16.4221 4.20345 16.4498 3.80785 16.5097 3.41885C16.6034 2.57443 17.1523 1.84882 17.9398 1.52788C18.3024 1.37113 18.6749 1.23954 19.0553 1.13352C20.0221 0.8856 21.0025 0.695844 21.992 0.56549C22.5128 0.485462 23.0356 0.413272 23.5555 0.331182C23.7178 0.305606 23.7806 0.211965 23.6794 0.0222087C23.5477 0.0222087 23.3998 0.0118959 23.2536 0.0222087C22.2778 0.0985238 21.3015 0.175664 20.3256 0.260229C18.5242 0.416572 16.7191 0.510625 14.9102 0.543214C13.2529 0.570027 11.5956 0.561364 9.93753 0.561364C7.94036 0.561364 5.94732 0.443385 3.95428 0.310556C2.82685 0.237128 1.7023 0.119975 0.57652 0.029634C0.383658 -0.0252304 0.177168 -0.00336715 0 0.090686C0.040059 0.163288 0.0627729 0.266004 0.123894 0.303956C0.211033 0.338607 0.303953 0.35717 0.397699 0.358408C1.51192 0.540326 2.62862 0.711107 3.74077 0.906639C4.41021 1.01802 5.06478 1.20447 5.6921 1.4623C6.54201 1.78117 7.14496 2.54432 7.2577 3.44442C7.34608 4.09702 7.38201 4.75581 7.36632 5.41418C7.37086 9.96751 7.37086 14.5208 7.36632 19.0746V25.5094C10.4699 25.6249 13.3876 27.0175 15.4277 29.3565C15.6899 29.6519 16.067 28.9316 16.3874 28.7192C16.3912 28.7183 16.3854 10.9188 16.3858 5.44347Z" fill="url(#paint1_linear_163_2)"/>
<path d="M16.3858 5.44347C16.3858 5.16131 16.3784 4.87832 16.3974 4.59699C16.4221 4.20345 16.4498 3.80785 16.5097 3.41885C16.6034 2.57443 17.1523 1.84882 17.9398 1.52788C18.3024 1.37113 18.6749 1.23954 19.0553 1.13352C20.0221 0.8856 21.0025 0.695844 21.992 0.56549C22.5128 0.485462 23.0356 0.413272 23.5555 0.331182C23.7178 0.305606 23.7806 0.211965 23.6794 0.0222087C23.5477 0.0222087 23.3998 0.0118959 23.2536 0.0222087C22.2778 0.0985238 21.3015 0.175664 20.3256 0.260229C18.5242 0.416572 16.7191 0.510625 14.9102 0.543214C13.2529 0.570027 11.5956 0.561364 9.93753 0.561364C7.94036 0.561364 5.94732 0.443385 3.95428 0.310556C2.82685 0.237128 1.7023 0.119975 0.57652 0.029634C0.383658 -0.0252304 0.177168 -0.00336715 0 0.090686C0.040059 0.163288 0.0627729 0.266004 0.123894 0.303956C0.211033 0.338607 0.303953 0.35717 0.397699 0.358408C1.51192 0.540326 2.62862 0.711107 3.74077 0.906639C4.41021 1.01802 5.06478 1.20447 5.6921 1.4623C6.54201 1.78117 7.14496 2.54432 7.2577 3.44442C7.34608 4.09702 7.38201 4.75581 7.36632 5.41418C7.37086 9.96751 7.37086 14.5208 7.36632 19.0746V25.5094C10.4699 25.6249 13.3876 27.0175 15.4277 29.3565C15.6899 29.6519 16.067 28.9316 16.3874 28.7192C16.3912 28.7183 16.3854 10.9188 16.3858 5.44347Z" fill="white"/>
<path d="M49.1285 47.7599C48.0452 47.4786 47.0718 46.8775 46.3351 46.0352C45.8226 45.4828 45.3633 44.8834 44.964 44.2445C44.2359 43.0791 43.6007 41.8585 43.0643 40.5941C40.8049 35.4233 38.5455 30.2524 36.2856 25.0819C36.2129 24.9116 36.1275 24.7466 36.0469 24.5729C35.9123 24.5519 35.8029 24.5292 35.6922 24.5193C34.3611 24.3955 33.0276 24.2945 31.6995 24.1468C30.2198 23.99 28.7541 23.7227 27.3145 23.3465C26.2713 23.0891 25.2649 22.7013 24.3187 22.1923C23.4114 21.7183 22.6598 20.9935 22.1539 20.1041C21.9557 19.7403 25.0526 25.3117 26.7871 28.3297C28.1925 30.7759 29.5103 33.2757 30.8525 35.7537C32.1228 38.1265 33.5166 40.4312 35.0277 42.6583C35.4147 43.2383 35.8747 43.7659 36.3967 44.2288C37.0269 44.7675 37.7203 45.2283 38.4612 45.6012C39.5052 46.1243 40.5984 46.5434 41.725 46.8524C43.3773 47.3065 45.0606 47.6394 46.7617 47.849C47.4332 47.9393 48.108 48.0062 48.7824 48.0738C48.9616 48.1246 49.1524 48.1126 49.3242 48.0404C49.2858 47.7983 49.2862 47.7983 49.1285 47.7603V47.7599Z" fill="url(#paint2_linear_163_2)"/>
<path d="M49.1285 47.7599C48.0452 47.4786 47.0718 46.8775 46.3351 46.0352C45.8226 45.4828 45.3633 44.8834 44.964 44.2445C44.2359 43.0791 43.6007 41.8585 43.0643 40.5941C40.8049 35.4233 38.5455 30.2524 36.2856 25.0819C36.2129 24.9116 36.1275 24.7466 36.0469 24.5729C35.9123 24.5519 35.8029 24.5292 35.6922 24.5193C34.3611 24.3955 33.0276 24.2945 31.6995 24.1468C30.2198 23.99 28.7541 23.7227 27.3145 23.3465C26.2713 23.0891 25.2649 22.7013 24.3187 22.1923C23.4114 21.7183 22.6598 20.9935 22.1539 20.1041C21.9557 19.7403 25.0526 25.3117 26.7871 28.3297C28.1925 30.7759 29.5103 33.2757 30.8525 35.7537C32.1228 38.1265 33.5166 40.4312 35.0277 42.6583C35.4147 43.2383 35.8747 43.7659 36.3967 44.2288C37.0269 44.7675 37.7203 45.2283 38.4612 45.6012C39.5052 46.1243 40.5984 46.5434 41.725 46.8524C43.3773 47.3065 45.0606 47.6394 46.7617 47.849C47.4332 47.9393 48.108 48.0062 48.7824 48.0738C48.9616 48.1246 49.1524 48.1126 49.3242 48.0404C49.2858 47.7983 49.2862 47.7983 49.1285 47.7603V47.7599Z" fill="white"/>
<path d="M63.1995 8.37004C62.623 10.0036 62.1952 11.6858 61.9218 13.3961C61.4733 16.1232 61.2267 18.8801 61.1842 21.6435C61.1611 22.7911 61.1326 23.9391 61.1392 25.0868C61.1524 27.3828 61.2412 29.6776 61.4741 31.963C61.688 34.4261 62.1485 36.8611 62.8481 39.2327C63.2069 40.4257 63.6827 41.5803 64.2695 42.6797C64.887 43.8533 65.6993 44.913 66.6727 45.8143C68.1288 47.1294 69.9534 47.9673 71.901 48.2148C72.4589 48.2931 73.0247 48.308 73.5876 48.3546C73.6834 48.3616 73.7788 48.3761 73.8721 48.3983C73.8969 48.4049 73.9229 48.4594 73.9225 48.492C73.9217 48.5246 73.8949 48.5786 73.8688 48.5852C73.7776 48.6145 73.6822 48.6302 73.5864 48.6318C72.8661 48.6071 72.1447 48.5984 71.4261 48.5415C69.6577 48.4124 67.9067 48.1063 66.1994 47.6278C63.5799 46.9104 61.1338 45.6687 59.0094 43.9778C56.5522 41.9747 54.6248 39.4002 53.3962 36.4796C52.5558 34.509 51.9582 32.4439 51.6175 30.329C51.1954 27.7537 51.0492 25.1408 51.1806 22.5349C51.2809 19.5747 51.8211 16.6459 52.7825 13.8441C53.6114 11.4264 54.8734 9.17939 56.508 7.21294C58.8641 4.43218 61.9589 2.37333 65.4362 1.27356C67.3764 0.711719 69.3546 0.289717 71.3554 0.0108578C71.4583 -0.00440523 65.9818 1.48518 63.2016 8.37004H63.1995Z" fill="url(#paint3_linear_163_2)"/>
<path d="M63.1995 8.37004C62.623 10.0036 62.1952 11.6858 61.9218 13.3961C61.4733 16.1232 61.2267 18.8801 61.1842 21.6435C61.1611 22.7911 61.1326 23.9391 61.1392 25.0868C61.1524 27.3828 61.2412 29.6776 61.4741 31.963C61.688 34.4261 62.1485 36.8611 62.8481 39.2327C63.2069 40.4257 63.6827 41.5803 64.2695 42.6797C64.887 43.8533 65.6993 44.913 66.6727 45.8143C68.1288 47.1294 69.9534 47.9673 71.901 48.2148C72.4589 48.2931 73.0247 48.308 73.5876 48.3546C73.6834 48.3616 73.7788 48.3761 73.8721 48.3983C73.8969 48.4049 73.9229 48.4594 73.9225 48.492C73.9217 48.5246 73.8949 48.5786 73.8688 48.5852C73.7776 48.6145 73.6822 48.6302 73.5864 48.6318C72.8661 48.6071 72.1447 48.5984 71.4261 48.5415C69.6577 48.4124 67.9067 48.1063 66.1994 47.6278C63.5799 46.9104 61.1338 45.6687 59.0094 43.9778C56.5522 41.9747 54.6248 39.4002 53.3962 36.4796C52.5558 34.509 51.9582 32.4439 51.6175 30.329C51.1954 27.7537 51.0492 25.1408 51.1806 22.5349C51.2809 19.5747 51.8211 16.6459 52.7825 13.8441C53.6114 11.4264 54.8734 9.17939 56.508 7.21294C58.8641 4.43218 61.9589 2.37333 65.4362 1.27356C67.3764 0.711719 69.3546 0.289717 71.3554 0.0108578C71.4583 -0.00440523 65.9818 1.48518 63.2016 8.37004H63.1995Z" fill="white"/>
<path d="M78.9402 0.00849591C85.1295 3.05079 88.7972 -0.0752444 89 0.00849591C88.9769 0.169376 87.6326 4.30401 88.8406 19.7341C86.9698 2.81318 78.8589 0.236204 78.9402 0.00849591Z" fill="url(#paint4_linear_163_2)"/>
<path d="M78.9402 0.00849591C85.1295 3.05079 88.7972 -0.0752444 89 0.00849591C88.9769 0.169376 87.6326 4.30401 88.8406 19.7341C86.9698 2.81318 78.8589 0.236204 78.9402 0.00849591Z" fill="white"/>
<defs>
<linearGradient id="paint0_linear_163_2" x1="26.7175" y1="5.93099" x2="104.005" y2="5.93099" gradientUnits="userSpaceOnUse">
<stop stop-color="#81562A"/>
<stop offset="0.5" stop-color="#F8B26A"/>
<stop offset="1" stop-color="#81562A"/>
</linearGradient>
<linearGradient id="paint1_linear_163_2" x1="-3.45525" y1="14.7884" x2="101.996" y2="14.7884" gradientUnits="userSpaceOnUse">
<stop stop-color="#81562A"/>
<stop offset="0.5" stop-color="#F8B26A"/>
<stop offset="1" stop-color="#81562A"/>
</linearGradient>
<linearGradient id="paint2_linear_163_2" x1="18.187" y1="34.1675" x2="138.975" y2="34.1675" gradientUnits="userSpaceOnUse">
<stop stop-color="#81562A"/>
<stop offset="0.5" stop-color="#F8B26A"/>
<stop offset="1" stop-color="#81562A"/>
</linearGradient>
<linearGradient id="paint3_linear_163_2" x1="47.8155" y1="24.4454" x2="149.09" y2="24.4454" gradientUnits="userSpaceOnUse">
<stop stop-color="#81562A"/>
<stop offset="0.5" stop-color="#F8B26A"/>
<stop offset="1" stop-color="#81562A"/>
</linearGradient>
<linearGradient id="paint4_linear_163_2" x1="77.4746" y1="9.92081" x2="122.184" y2="9.92081" gradientUnits="userSpaceOnUse">
<stop stop-color="#81562A"/>
<stop offset="0.5" stop-color="#F8B26A"/>
<stop offset="1" stop-color="#81562A"/>
</linearGradient>
</defs>
</svg>
