<svg width="229" height="62" viewBox="0 0 229 62" fill="none" xmlns="http://www.w3.org/2000/svg">
<path d="M31.8819 30.968L31.8234 31.025L39.5216 38.5162L54.4061 52.9437C48.5868 58.4928 40.662 61.9929 31.8746 61.9929C14.2558 62 0 48.1203 0 30.968C0 26.2513 1.08198 21.8121 3.02662 17.8708L16.5441 30.968H31.8892H31.8819Z" fill="#134A98"/>
<path d="M47.227 30.968H31.8819L24.1837 23.5337L9.35767 9.04923C15.1185 3.44326 23.1018 0 31.8819 0C49.4495 0 63.7638 13.8726 63.7638 30.968C63.7638 35.6847 62.6818 40.1808 60.7372 44.1221L47.2197 30.968H47.227Z" fill="#134A98"/>
<path d="M48.9962 14.3208L31.8819 30.968L24.1838 23.5337L33.6511 14.3208H48.9962Z" fill="#5DB2E3"/>
<path d="M39.5289 38.5232L30.1127 47.6792H14.7164L31.8234 31.0249L39.5289 38.5232Z" fill="#5DB2E3"/>
<path d="M86.31 18.6106H90.6599V44.0295H86.31V18.6106Z" fill="#134A98"/>
<path d="M101.209 22.6586H93.2259V18.6106H113.557V22.6586H105.574V44.0295H101.216V22.6586H101.209Z" fill="#134A98"/>
<path d="M139.217 44.0296L136.644 41.5609C134.597 43.4035 131.943 44.3995 128.953 44.3995C123.616 44.3995 120.02 41.7815 120.02 36.9936C120.02 34.1195 121.686 31.5015 124.676 29.8439C123.507 28.2646 122.937 26.8986 122.937 25.1699C122.937 21.1219 126.007 18.2478 131 18.2478C135.993 18.2478 139.1 21.2642 139.364 25.8315H135.007C134.853 23.6546 133.493 21.9258 130.956 21.9258C128.42 21.9258 127.286 23.3629 127.286 25.1272C127.286 26.8915 128.383 28.2646 131.753 31.4659L136.556 36.0332C137.083 35.2222 137.543 34.3401 137.997 33.3796L139.247 30.6905H143.523L141.893 34.1907C141.096 35.8127 140.263 37.328 139.283 38.6868L144.927 44.0296H139.21H139.217ZM129.297 40.7499C131.154 40.7499 132.667 40.1239 133.954 39.0212L129.034 34.3827C128.31 33.6784 127.63 33.0524 127.067 32.4263C125.364 33.5006 124.34 34.895 124.34 36.7375C124.34 39.3129 126.307 40.7499 129.297 40.7499Z" fill="#134A98"/>
<path d="M158.51 22.6586H150.527V18.6106H170.858V22.6586H162.875V44.0295H158.518V22.6586H158.51Z" fill="#134A98"/>
<path d="M168.409 34.8949C168.409 29.5522 172.613 25.3904 177.95 25.3904C183.286 25.3904 187.336 29.3743 187.336 34.7811C187.336 35.2293 187.336 35.7059 187.263 36.147H172.576C173.066 39.135 175.186 40.821 178.14 40.821C180.486 40.821 181.963 39.6828 182.796 37.9469H187.117C185.677 41.9237 182.314 44.3923 178.147 44.3923C172.62 44.3923 168.416 40.1879 168.416 34.8878L168.409 34.8949ZM183.052 33.1662C182.716 30.6976 180.75 28.9261 177.906 28.9261C175.296 28.9261 173.293 30.5126 172.686 33.1662H183.06H183.052Z" fill="#134A98"/>
<path d="M189.391 34.8949C189.391 29.5522 193.667 25.3904 199.202 25.3904C204.049 25.3904 207.909 28.6344 208.706 33.0879H204.385C203.668 30.8043 201.775 29.2178 199.202 29.2178C196.021 29.2178 193.594 31.6864 193.594 34.8949C193.594 38.1034 196.014 40.572 199.202 40.572C201.775 40.572 203.668 38.95 204.385 36.7019H208.706C207.945 41.1198 204.049 44.3994 199.202 44.3994C193.675 44.3994 189.391 40.2377 189.391 34.8949Z" fill="#134A98"/>
<path d="M211.542 18.6106H215.746V27.6029C216.915 26.1943 218.736 25.3904 221.046 25.3904C225.703 25.3904 228.993 28.5918 228.993 33.6428V44.0295H224.789V34.0128C224.789 31.0248 223.122 29.2605 220.395 29.2605C217.668 29.2605 215.738 31.1031 215.738 34.0128V44.0295H211.535V18.6106H211.542Z" fill="#134A98"/>
</svg>
