<?xml version="1.0" encoding="utf-8"?>
<!-- Generator: Adobe Illustrator 16.0.0, SVG Export Plug-In . SVG Version: 6.00 Build 0)  -->
<!DOCTYPE svg PUBLIC "-//W3C//DTD SVG 1.1//EN" "http://www.w3.org/Graphics/SVG/1.1/DTD/svg11.dtd">
<svg version="1.1" id="Layer_1" xmlns="http://www.w3.org/2000/svg" xmlns:xlink="http://www.w3.org/1999/xlink" x="0px" y="0px"
	 width="262px" height="60px" viewBox="0 0 262 60" enable-background="new 0 0 262 60" xml:space="preserve">
<g>
	<g>
		<g>
			<path fill="#41B6E8" d="M194.211,6.776h0.215c1.412,0,2.525,0.706,3.338,2.117c0.264,0.502,0.396,1.041,0.396,1.615v0.359
				c0,1.364-0.729,2.464-2.188,3.302c-0.525,0.239-1.076,0.358-1.65,0.358c-1.627,0-2.824-0.813-3.59-2.44
				c-0.166-0.431-0.252-0.838-0.252-1.22v-0.323c0-1.627,0.862-2.812,2.586-3.553C193.493,6.847,193.874,6.776,194.211,6.776z"/>
		</g>
		<g>
			<path fill="#41B6E8" d="M194.066,17.207h0.504c0.812,0,1.564,0.407,2.261,1.22c0.381,0.599,0.573,1.161,0.573,1.688v30.829
				c0,1.125-0.609,2.033-1.83,2.729c-0.479,0.166-0.85,0.25-1.112,0.25h-0.287c-1.005,0-1.854-0.525-2.548-1.578
				c-0.287-0.453-0.43-1.16-0.43-2.117V20.903c0-1.627,0.488-2.704,1.471-3.23C193.121,17.362,193.588,17.207,194.066,17.207z"/>
		</g>
		<g>
			<path fill="#41B6E8" d="M222.157,42.711l13.686,13.686c0.656,0.656,1.244,1.047,1.743,1.16c1.186,0.242,2.13,0.023,2.809-0.652
				l0.203-0.203c0.174-0.176,0.371-0.489,0.586-0.934c0.354-1.3,0.156-2.315-0.611-3.086l-14.752-14.75
				c-0.352-0.353-0.869-0.605-1.539-0.754c-1.008-0.078-1.805,0.157-2.352,0.703l-0.354,0.355c-0.319,0.32-0.531,0.742-0.626,1.257
				C220.639,40.521,221.046,41.6,222.157,42.711z"/>
		</g>
		<g>
			<g>
				<path fill="#41B6E8" d="M234.09,22.882c-2.974-2.973-6.668-4.825-10.98-5.502c-1.213-0.249-2.95-0.276-5.178-0.08
					c-4.58,0.732-8.326,2.528-11.137,5.337l-0.23,0.231l-0.23,0.231c-2.811,2.811-4.605,6.557-5.338,11.135
					c-0.196,2.228-0.171,3.966,0.076,5.168c0.681,4.322,2.531,8.019,5.506,10.99c3.598,3.6,8.179,5.523,13.615,5.719
					c0.377-0.01,0.798-0.03,1.266-0.063l0.009-0.001h0.011c0.844,0.009,1.637-0.315,2.229-0.909c1.213-1.212,1.213-3.185,0-4.396
					c-0.673-0.674-1.604-0.996-2.553-0.889h-0.01h-0.011c-0.151,0.006-0.312,0.017-0.469,0.035c-0.294,0.033-0.591,0.027-0.88,0.021
					l-0.202-0.005h-0.009h-0.012c-3.445-0.33-6.274-1.577-8.405-3.711l-0.19-0.189c-2.624-2.624-3.945-5.898-3.928-9.732
					c0.111-2.027,0.539-3.813,1.273-5.321c0.717-1.415,1.519-2.568,2.383-3.433l0.259-0.258l0.257-0.258
					c0.864-0.865,2.02-1.665,3.432-2.381c1.51-0.736,3.297-1.166,5.312-1.275c3.849-0.019,7.123,1.303,9.747,3.929l0.189,0.19
					c2.133,2.131,3.381,4.959,3.709,8.405l0.002,0.01v0.01l0.004,0.202c0.006,0.288,0.013,0.586-0.021,0.88
					c-0.02,0.157-0.029,0.316-0.034,0.469v0.011l-0.002,0.011c-0.106,0.949,0.216,1.879,0.89,2.553c1.213,1.213,3.186,1.213,4.396,0
					c0.596-0.595,0.918-1.387,0.91-2.229v-0.011l0.001-0.008c0.03-0.468,0.053-0.888,0.063-1.281
					C239.611,31.063,237.688,26.48,234.09,22.882z"/>
			</g>
		</g>
	</g>
	<g>
		<g>
			<path fill="#FFFFFF" d="M23.662,2.456h0.25c1.077,0,1.974,0.587,2.692,1.759c0.192,0.502,0.288,0.897,0.288,1.184v12.238
				c0,0.742,0.371,1.245,1.113,1.507c0.119,0.024,0.228,0.037,0.322,0.037h0.072c0.359,0,1.113-0.287,2.261-0.862
				c2.01-0.765,3.983-1.148,5.921-1.148c3.996,0,7.573,1.376,10.731,4.126c1.483,1.459,2.392,2.537,2.728,3.231
				c1.1,1.675,1.831,3.458,2.188,5.348c0.263,0.957,0.395,2.489,0.395,4.595v15.862c0,1.674-0.634,2.787-1.902,3.338
				c-0.454,0.166-0.826,0.25-1.112,0.25h-0.215c-1.149,0-2.059-0.622-2.728-1.864c-0.192-0.384-0.287-0.957-0.287-1.724V33.32
				c0-2.75-0.934-5.097-2.799-7.034c-2.01-1.937-4.343-2.907-6.999-2.907c-2.799,0-5.239,1.125-7.321,3.374
				c-1.579,1.844-2.369,4.032-2.369,6.567v17.658c0,0.886-0.455,1.688-1.364,2.404c-0.551,0.358-1.089,0.537-1.615,0.537h-0.25
				c-1.005,0-1.867-0.525-2.584-1.578c-0.288-0.453-0.431-1.173-0.431-2.154V6.117c0-1.699,0.622-2.823,1.866-3.374
				C22.943,2.551,23.326,2.456,23.662,2.456z"/>
		</g>
		<g>
			<path fill="#FFFFFF" d="M99.412,17.207c1.099,0,1.985,0.502,2.656,1.507c0.358,0.455,0.79,0.682,1.291,0.682
				c0.239,0,1.029-0.3,2.369-0.897c1.651-0.55,3.29-0.825,4.917-0.825c3.325,0,6.376,1.112,9.151,3.338
				c0.766,0.789,1.364,1.185,1.795,1.185h0.144c0.454,0,1.243-0.551,2.369-1.652c2.632-1.914,5.575-2.871,8.83-2.871
				c3.469,0,6.662,1.268,9.582,3.804c1.555,1.628,2.512,2.883,2.871,3.769c1.053,2.154,1.579,3.96,1.579,5.419v20.277
				c0,1.197-0.635,2.104-1.901,2.729c-0.215,0.119-0.588,0.202-1.113,0.25c-1.219,0-2.152-0.622-2.799-1.865
				c-0.191-0.453-0.286-1.054-0.286-1.795V30.629c-0.097-1.172-0.646-2.427-1.651-3.768c-1.723-2.083-3.876-3.122-6.46-3.122
				c-2.369,0-4.439,0.968-6.209,2.906c-0.574,0.742-1.041,1.531-1.399,2.369c-0.263,0.839-0.395,1.377-0.395,1.615v19.632
				c0,1.724-0.622,2.849-1.866,3.374c-0.24,0.12-0.634,0.215-1.185,0.286c-1.244,0-2.189-0.622-2.835-1.864
				c-0.192-0.455-0.287-1.055-0.287-1.796V30.521c0-0.838-0.479-1.999-1.436-3.482c-1.794-2.201-3.997-3.3-6.604-3.3
				c-2.728,0-4.989,1.207-6.783,3.624c-0.79,1.292-1.209,2.404-1.257,3.338v19.56c0,1.771-0.622,2.896-1.866,3.374
				c-0.383,0.167-0.79,0.264-1.22,0.286c-1.077,0-1.975-0.537-2.692-1.614c-0.239-0.479-0.359-1.16-0.359-2.046V20.832
				c0-1.508,0.419-2.513,1.257-3.015C98.119,17.41,98.717,17.207,99.412,17.207z"/>
		</g>
		<g>
			<path fill="#FFFFFF" d="M23.662,2.348h0.25c1.077,0,1.975,0.587,2.692,1.759c0.192,0.502,0.288,0.897,0.288,1.185V17.53
				c0,0.742,0.371,1.244,1.113,1.507c0.119,0.024,0.227,0.037,0.323,0.037H28.4c0.358,0,1.112-0.288,2.262-0.861
				c2.009-0.766,3.984-1.149,5.921-1.149c3.996,0,7.574,1.377,10.732,4.128c1.483,1.459,2.392,2.536,2.728,3.229
				c1.1,1.676,1.831,3.458,2.189,5.349c0.263,0.957,0.396,2.489,0.396,4.595v15.861c0,1.676-0.634,2.789-1.902,3.338
				c-0.455,0.17-0.826,0.252-1.113,0.252h-0.215c-1.149,0-2.059-0.621-2.728-1.866c-0.192-0.38-0.287-0.955-0.287-1.724V33.215
				c0-2.752-0.934-5.098-2.8-7.035c-2.009-1.938-4.342-2.907-6.999-2.907c-2.799,0-5.24,1.125-7.322,3.374
				c-1.579,1.843-2.369,4.031-2.369,6.568v17.658c0,0.886-0.455,1.688-1.364,2.404c-0.551,0.358-1.089,0.539-1.615,0.539h-0.25
				c-1.004,0-1.867-0.526-2.584-1.58c-0.288-0.453-0.431-1.172-0.431-2.153V6.009c0-1.699,0.622-2.823,1.867-3.374
				C22.943,2.443,23.326,2.348,23.662,2.348z"/>
		</g>
		<g>
			<path fill="#FFFFFF" d="M99.417,17.099c1.099,0,1.985,0.502,2.656,1.507c0.359,0.455,0.79,0.682,1.292,0.682
				c0.239,0,1.028-0.299,2.369-0.897c1.651-0.55,3.289-0.825,4.917-0.825c3.325,0,6.376,1.112,9.153,3.337
				c0.765,0.79,1.364,1.185,1.794,1.185h0.144c0.454,0,1.244-0.55,2.369-1.651c2.632-1.915,5.576-2.871,8.831-2.871
				c3.469,0,6.664,1.268,9.582,3.804c1.556,1.627,2.515,2.883,2.873,3.769c1.051,2.153,1.578,3.961,1.578,5.419v20.278
				c0,1.196-0.635,2.104-1.902,2.728c-0.215,0.121-0.588,0.205-1.112,0.252c-1.222,0-2.151-0.623-2.799-1.867
				c-0.19-0.453-0.287-1.053-0.287-1.795V30.523c-0.099-1.173-0.646-2.428-1.651-3.771c-1.723-2.081-3.877-3.123-6.461-3.123
				c-2.368,0-4.438,0.97-6.208,2.908c-0.574,0.742-1.041,1.532-1.399,2.369c-0.264,0.838-0.395,1.375-0.395,1.616v19.631
				c0,1.724-0.623,2.849-1.866,3.375c-0.24,0.121-0.634,0.216-1.185,0.287c-1.245,0-2.19-0.623-2.835-1.867
				c-0.192-0.453-0.288-1.053-0.288-1.795v-19.74c0-0.837-0.479-1.996-1.436-3.48c-1.794-2.201-3.997-3.303-6.604-3.303
				c-2.728,0-4.989,1.209-6.784,3.626c-0.79,1.292-1.208,2.404-1.255,3.337v19.563c0,1.771-0.624,2.896-1.867,3.373
				c-0.382,0.169-0.79,0.265-1.219,0.287c-1.077,0-1.975-0.539-2.692-1.614c-0.239-0.479-0.359-1.16-0.359-2.046V20.725
				c0-1.508,0.418-2.512,1.256-3.016C98.124,17.303,98.721,17.099,99.417,17.099z"/>
		</g>
		<g>
			<path fill="#FFFFFF" d="M74.588,17.028c-10.155,0-18.388,8.267-18.388,18.466c0,10.197,8.233,18.467,18.388,18.467
				c10.156,0,18.389-8.27,18.389-18.467C92.977,25.295,84.744,17.028,74.588,17.028z M74.55,47.68
				c-6.706,0-12.142-5.462-12.142-12.197s5.436-12.195,12.142-12.195c6.706,0,12.141,5.46,12.141,12.195S81.256,47.68,74.55,47.68z"
				/>
		</g>
		<g>
			<path fill="#FFFFFF" d="M187.165,32.908c-0.897-5.375-3.421-9.541-7.569-12.501c-3.232-2.307-6.949-3.444-11.146-3.412
				c-0.743-0.03-2.086,0.143-4.03,0.519c-4.476,1.245-7.992,3.66-10.549,7.244c-1.349,1.889-2.353,4.201-3.009,6.936
				c-0.201,1.063-0.32,2.302-0.357,3.715c-0.005,1.818,0.296,3.724,0.903,5.715c1.366,3.798,3.491,6.764,6.372,8.904
				c0.16,0.121,0.32,0.238,0.484,0.354l0.254,0.184c0.771,0.549,1.614,1.028,2.527,1.447c0.01,0.006,0.021,0.012,0.032,0.016
				c0.122,0.058,0.245,0.113,0.372,0.168c0.988,0.441,2.054,0.791,3.195,1.05c0.021,0.005,0.039,0.011,0.061,0.016
				c0.811,0.228,1.773,0.375,2.888,0.447c0.335,0.028,0.688,0.043,1.062,0.045c0.248,0.005,0.504,0.008,0.766,0.006
				c0.678,0.001,1.477-0.075,2.391-0.228c0.348-0.049,0.717-0.118,1.116-0.211c0.265-0.057,0.535-0.114,0.816-0.182
				c0.69-0.207,1.329-0.424,1.913-0.647c0.039-0.013,0.074-0.024,0.111-0.037c0.034-0.017,0.065-0.03,0.101-0.045
				c0.843-0.333,1.573-0.681,2.185-1.046c0.1-0.062,0.188-0.119,0.28-0.182c0.571-0.326,1.078-0.658,1.511-0.99
				c0.163-0.131,0.313-0.256,0.467-0.383c0.418-0.324,0.765-0.623,1.039-0.896c0.914-0.831,1.541-1.523,1.859-2.069l0.053-0.095
				c0.174-0.314,0.276-0.626,0.311-0.936c0.178-1.461-0.362-2.537-1.621-3.23c-0.648-0.357-1.443-0.428-2.385-0.209
				c-0.598,0.191-1.283,0.742-2.06,1.65c-0.89,0.822-1.669,1.418-2.337,1.787c-0.031,0.024-0.072,0.051-0.109,0.076
				c-0.414,0.246-0.795,0.442-1.145,0.584c-0.01,0.008-0.021,0.014-0.032,0.018c-0.497,0.203-1.12,0.419-1.858,0.646
				c-0.317,0.075-0.668,0.151-1.053,0.229c-0.893,0.134-1.755,0.188-2.586,0.16c-0.838-0.037-1.638-0.146-2.4-0.324
				c-0.93-0.229-1.814-0.569-2.654-1.032l-0.627-0.347c-0.148-0.082-0.295-0.17-0.439-0.262c-0.05-0.033-0.101-0.064-0.147-0.101
				l-0.585-0.417c-0.124-0.088-0.245-0.186-0.365-0.282c-0.395-0.325-0.777-0.688-1.148-1.091l-0.008,0.021
				c-0.773-0.836-1.472-1.848-2.093-3.035c-0.215-0.564-0.19-1.031,0.074-1.402l0.125-0.175c0.194-0.272,0.505-0.461,0.935-0.567
				c2.385-0.004,3.584-0.017,3.596-0.035c14.088,0.029,21.379,0.029,21.873-0.002c0.98-0.181,1.693-0.582,2.14-1.205
				c0.034-0.093,0.104-0.207,0.2-0.343C187.303,36.298,187.404,34.96,187.165,32.908z M179.8,31.488l-0.124,0.176
				c-0.252,0.35-0.619,0.559-1.105,0.622c-11.7,0-17.612-0.017-17.736-0.046c-1.271,0.092-2.053,0.033-2.346-0.176
				c-0.369-0.264-0.598-0.604-0.684-1.019c-0.152-0.487,0.26-1.415,1.233-2.779c1.917-2.687,4.659-4.347,8.226-4.977
				c3.348-0.284,6.161,0.386,8.44,2.012l0.585,0.417c1.4,1.001,2.602,2.473,3.594,4.417C180.077,30.688,180.051,31.139,179.8,31.488
				z"/>
		</g>
	</g>
</g>
</svg>
